<svg version="1.1" xmlns="http://www.w3.org/2000/svg" xmlns:xlink="http://www.w3.org/1999/xlink" width="14.49785" height="12.55614" viewBox="0,0,14.49785,12.55614"><g transform="translate(-172.75109,-353.72193)"><g stroke="none" stroke-miterlimit="10"><path d="M176.50446,366.05386l-3.4933,-6.05386l3.4933,-6.05386h6.99108l3.4933,6.05386l-3.4933,6.05386z" fill="#c94d9d"/><path d="M183.36553,354.17037h-6.73099l-3.36774,5.82964l3.36774,5.82964h6.73099l3.36774,-5.82964l-3.36774,-5.82964M183.6256,353.72193l3.62334,6.27807l-3.62334,6.27807h-7.25117l-3.62334,-6.27807l3.62334,-6.27807z" fill="#000000"/><g fill="#ffffff"><path d="M181.36593,361.01246c-0.0104,0.02427 -0.02427,0.03467 -0.05201,0.03814c-0.17337,0.02774 -0.34673,0.04508 -0.5201,0.05201c-0.02427,0 -0.03121,-0.00693 -0.03121,-0.02774c-0.0104,-0.14563 -0.0208,-0.29472 -0.03121,-0.44035c-0.00347,-0.07281 -0.01387,-0.14563 -0.01734,-0.22191c-0.0104,-0.18724 -0.0208,-0.37447 -0.03121,-0.56171c-0.00347,-0.06935 -0.00347,-0.14216 -0.00347,-0.21151c0,-0.02774 0.00347,-0.05894 0.01387,-0.09015c0.14563,0.26352 0.31206,0.51316 0.41608,0.79055c0.06935,-0.40914 0.15256,-0.81829 0.26352,-1.2309c0.02774,0.37794 0.05548,0.75241 0.08322,1.11995c0.00347,0 0.00693,0 0.00693,0c0.00693,-0.01734 0.01387,-0.03121 0.02427,-0.04508c0.11095,-0.18724 0.22538,-0.37447 0.3398,-0.56517c0.02427,-0.04508 0.05201,-0.08668 0.07975,-0.12829c0.0104,-0.0104 0.02427,-0.0208 0.03467,-0.03121c0.00347,0.00347 0.00693,0.00347 0.00693,0.00347c0,0.00693 -0.00347,0.01387 -0.00347,0.0208c-0.01387,0.05548 -0.03121,0.10749 -0.04161,0.16296c-0.0208,0.10402 -0.07281,0.20111 -0.11095,0.29819c-0.1491,0.35713 -0.30513,0.70734 -0.42995,1.06447z"/><path d="M183.37004,360.91884c0.20804,-0.33633 0.41955,-0.70387 0.66226,-1.0714c-0.11442,0.3398 -0.24271,0.93618 -0.24965,1.061l-0.42301,0.73507c-0.00347,0.03121 -0.03467,0.03121 -0.03467,0.03121c-0.18724,-0.04161 -0.34327,-0.08322 -0.5305,-0.12482v-0.03121c0.03814,-0.15603 0.12829,-0.59291 0.16296,-0.65533c0.04161,-0.18724 0.11442,-0.34327 0.15603,-0.5305c0.03467,-0.06241 0.04161,-0.15603 0.07628,-0.21844c0,-0.03121 0.03467,-0.03121 0.03467,-0.06241c0.04854,0.28779 0.12829,0.57904 0.14216,0.86337z"/><path d="M177.06644,361.53603c0.0208,0.02774 -0.00693,0.04508 -0.00693,0.04508c-0.17337,0.08322 -0.32246,0.1491 -0.49583,0.23231l-0.01734,-0.02774c-0.06588,-0.1491 -0.26698,-0.54784 -0.27739,-0.61718c-0.08322,-0.17337 -0.12136,-0.3398 -0.20457,-0.51316c-0.0104,-0.06935 -0.06588,-0.1491 -0.07628,-0.21844c-0.01734,-0.02427 0.00693,-0.04508 -0.0104,-0.06935c0.21497,0.19417 0.45769,0.37447 0.64492,0.58945c-0.04508,-0.39181 -0.02774,-0.5409 -0.06588,-0.97779c0.12482,0.3398 0.31206,0.61372 0.38487,0.71774z"/><path d="M177.63508,359.16784c0.07281,0.24618 0.1491,0.48889 0.22538,0.73161l0.66226,1.87236l-1.0298,0.40914l-0.15256,-1.24477c-0.02774,-0.21151 -0.05548,-0.42301 -0.08322,-0.63799c0.00347,0 0.00347,0 0.00347,0l-0.03121,-0.24618v0c-0.01387,-0.1595 -0.03121,-0.31899 -0.04508,-0.47849c-0.0208,-0.23231 -0.04161,-0.46462 -0.05894,-0.69693c-0.01387,-0.1907 -0.02774,-0.38487 -0.04161,-0.57558c-0.01387,-0.21151 -0.02774,-0.42301 -0.04161,-0.63452c-0.00693,-0.07975 -0.0104,-0.15603 -0.0104,-0.23578c0,-0.00693 0,-0.01387 0,-0.01734c0.0104,-0.01387 0.0208,-0.02774 0.03121,-0.04161c0.0104,0.0104 0.0208,0.02427 0.02427,0.03814c0.09362,0.26698 0.19417,0.53397 0.28432,0.79749c0.03467,0.09709 0.05548,0.20111 0.08322,0.30166c0.05548,0.21844 0.11095,0.43342 0.17337,0.64839z"/><path d="M178.92493,361.03326c-0.09362,-0.01387 -0.18724,-0.02427 -0.28085,-0.03467c-0.01387,0 -0.0208,-0.0104 -0.02427,-0.0208c-0.05201,-0.11442 -0.10055,-0.22538 -0.1491,-0.3398c-0.0208,-0.04508 -0.03814,-0.09015 -0.05894,-0.13523c-0.02427,-0.05201 -0.02774,-0.11095 -0.02774,-0.16643c0.0104,-0.1803 0.02774,-0.3606 0.04161,-0.5409c0.00693,-0.07975 0.01387,-0.16296 0.0208,-0.24271c0,-0.0104 0.00347,-0.02427 0.00347,-0.03467c0.00347,0 0.00693,0 0.00693,0c0.03814,0.03814 0.08322,0.06935 0.10055,0.12482c0.06241,0.20111 0.12136,0.39874 0.18377,0.59638c0.00347,0.0104 0.00693,0.01734 0.0104,0.02774c0.05894,-0.1595 0.08668,-0.32593 0.1595,-0.48196c0.00347,0.00693 0.00693,0.0104 0.00693,0.01734c0.04161,0.17337 0.08322,0.3502 0.12136,0.52357c0.01387,0.04854 0.02427,0.09362 0.01734,0.14563c-0.00693,0.04854 -0.0104,0.09709 -0.01387,0.06935c-0.00693,0.00693 -0.00693,0.01387 -0.00693,0.01734c-0.02427,0.15256 -0.05201,0.30166 -0.07628,0.45075c-0.00693,0.02774 -0.00693,0.02774 -0.03467,0.02427z"/><path d="M180.3708,359.08462c0.01387,0.1907 0.02427,0.38487 0.03467,0.57558l0.31899,3.53668l-1.9417,0.14563l0.29819,-1.62271v0c0.06241,-0.34673 0.12482,-0.7004 0.18724,-1.04713c0.00347,0 0.00693,0.00693 0.00693,0.00693l0.06588,-0.36407c0,-0.00347 0,-0.0104 0,-0.0104c0.04508,-0.24271 0.09015,-0.48889 0.13869,-0.73507l0.0208,-0.10749v0c0.00693,-0.03467 0.01387,-0.06935 0.0208,-0.10402c0.07281,-0.37447 0.14563,-0.75588 0.22191,-1.13728c0.05894,-0.29472 0.12136,-0.58945 0.17683,-0.88764c0.03467,-0.1803 0.05548,-0.36754 0.08322,-0.55477c0.00347,-0.02774 0.00693,-0.05548 0.0208,-0.07975c0.01387,-0.01734 0.03814,-0.04161 0.05548,-0.04161c0.01734,0 0.04854,0.01734 0.05548,0.03814c0.01734,0.03814 0.0208,0.07975 0.03121,0.12136c-0.00693,0.00347 -0.0104,0.00347 -0.01387,0.00347c0.01387,0.08322 0.03467,0.16296 0.04508,0.24618c0.04161,0.3606 0.09015,0.7212 0.12136,1.07834c0.02774,0.31206 0.04161,0.62759 0.05894,0.93965z"/><path d="M182.84648,359.67754c-0.01734,0.07281 -0.03814,0.1491 -0.05548,0.22191l-0.47502,2.36472l-0.03121,-0.01734c-0.00347,0.00347 -0.00347,0.00347 -0.00347,0.00347c-0.05894,-0.03121 -0.11095,-0.05894 -0.16296,-0.08668c-0.1699,-0.09362 -0.3398,-0.18377 -0.5097,-0.27739c-0.06935,-0.03814 -0.13523,-0.07281 -0.20457,-0.11095v0l-0.07281,-0.03814l0.50276,-1.05407v0c0.06241,-0.12829 0.12136,-0.25312 0.18377,-0.38834c0,0.00347 0,0.00347 0,0.00347l0.09709,-0.20457c0,-0.00347 0,-0.00347 0,-0.00347c0.0208,-0.04854 0.04508,-0.09709 0.06935,-0.14216c0.03467,-0.07281 0.07281,-0.14216 0.10749,-0.21497c0.03814,-0.07975 0.07628,-0.16296 0.11442,-0.24271c0.03467,-0.06935 0.06935,-0.13523 0.10402,-0.20457c0.02427,-0.04508 0.04508,-0.09015 0.06588,-0.13523c0.02427,-0.05201 0.04854,-0.10055 0.07281,-0.1491c0.03814,-0.07281 0.07281,-0.1491 0.11095,-0.22191c0.03467,-0.06935 0.07281,-0.13869 0.11095,-0.20804c0.02427,-0.04854 0.04508,-0.09709 0.06935,-0.14563c0.03467,-0.07281 0.07281,-0.14563 0.10749,-0.21844c0.04854,-0.10402 0.09709,-0.20804 0.13523,-0.31899c0.01734,-0.05548 0.04508,-0.10055 0.07975,-0.14216c0.01734,-0.0208 0.03814,-0.01387 0.04854,0.01734c0.0104,0.03121 0.01387,0.06935 0.0104,0.09709c-0.0104,0.07628 -0.02427,0.1491 -0.04161,0.22191c-0.02427,0.10402 -0.04854,0.20804 -0.07628,0.31206c-0.02774,0.11442 -0.05894,0.22538 -0.09015,0.33633c-0.02774,0.09709 -0.05548,0.19764 -0.08322,0.29472c-0.03467,0.12829 -0.06935,0.25312 -0.10402,0.37794c-0.02427,0.09015 -0.04854,0.18377 -0.07281,0.27392z"/></g></g></g></svg>