<svg version="1.1" xmlns="http://www.w3.org/2000/svg" xmlns:xlink="http://www.w3.org/1999/xlink" width="14.49785" height="12.55614" viewBox="0,0,14.49785,12.55614"><g transform="translate(-232.75108,-173.72193)"><g stroke="none" stroke-miterlimit="10"><path d="M236.50446,186.05386l-3.4933,-6.05386l3.4933,-6.05386h6.99108l3.4933,6.05386l-3.4933,6.05386z" fill="#8c8c8c"/><path d="M243.36552,174.17037h-6.73099l-3.36774,5.82964l3.36774,5.82964h6.73099l3.36774,-5.82964l-3.36774,-5.82964M243.6256,173.72193l3.62334,6.27807l-3.62334,6.27807h-7.25117l-3.62334,-6.27807l3.62334,-6.27807z" fill="#000000"/><g fill="#ffffff"><path d="M243.83572,180.275c0,0.37254 0,0.74166 0,1.1142c0,0.32469 0,0.6528 0,0.9809c0,0.02051 -0.00684,0.03418 -0.02734,0.04785c-0.39305,0.22216 -0.78267,0.44431 -1.1723,0.66647c-0.27,0.1538 -0.54343,0.31102 -0.81343,0.46482c-0.03418,0.02051 -0.07177,0.03076 -0.10937,0.03076c-0.17772,0 -0.35545,0 -0.53317,0c-0.12304,0 -0.24608,-0.00684 -0.36912,-0.00684c-0.55026,-0.00342 -1.09711,-0.00684 -1.64737,-0.00684c-0.32127,-0.00342 -0.64254,-0.00684 -0.96382,-0.00684c-0.32811,-0.00684 -0.65963,-0.00684 -0.98774,-0.00684h-0.39305c0,-0.00342 0,-0.00684 0,-0.00684c0.06152,-0.01367 0.11962,-0.03076 0.18114,-0.04785c0.45457,-0.11962 0.90913,-0.24266 1.3637,-0.3657c0.3452,-0.09228 0.69039,-0.18456 1.03559,-0.27684c0.35203,-0.09228 0.70406,-0.18798 1.0561,-0.28026c0.02392,-0.00684 0.03418,-0.01709 0.03418,-0.04443c-0.00342,-0.14355 -0.00342,-0.28709 -0.00342,-0.42722c0,-0.12646 0,-0.25292 0,-0.37937v-0.33153c0,-0.13329 0,-0.25975 0,-0.39646c0,-0.13671 0,-0.26659 0,-0.39988c0,-0.09228 0,-0.18114 0,-0.27342c0,-0.16747 0,-0.33836 0,-0.50583c0,-0.1538 0,-0.3076 0,-0.4614c0.00342,-0.0957 0.01025,-0.18798 0.01025,-0.28368c0.00342,-0.04785 -0.01025,-0.0957 -0.00342,-0.14013c0.01709,-0.10937 0.03076,-0.22216 0.0581,-0.32811c0.03076,-0.13671 0.07519,-0.26659 0.13671,-0.39305c0.06494,-0.13329 0.13329,-0.26659 0.22557,-0.38621c0.08886,-0.10937 0.19481,-0.20507 0.31102,-0.28709c0.15722,-0.10937 0.31785,-0.20507 0.50241,-0.25975c0.12646,-0.0376 0.25292,-0.06494 0.38279,-0.06494c0.10937,0 0.22216,0 0.33494,0.01025c0.15038,0.01367 0.28709,0.06494 0.42381,0.12646c0.15038,0.06836 0.28026,0.17089 0.41013,0.27342c0.06494,0.05127 0.12988,0.10595 0.17772,0.17772c0.04443,0.06836 0.08886,0.13671 0.12304,0.20848c0.04101,0.08203 0.07519,0.16747 0.10937,0.25292c0.0376,0.08886 0.05127,0.18114 0.06152,0.27684c0.01025,0.08544 0.02392,0.17431 0.04101,0.25975c0.03076,0.14013 0.02734,0.28368 0.03076,0.42722c0,0.09912 0.00684,0.19481 0.00684,0.29393c0,0.11279 0,0.22216 0,0.33494c0,0.13671 0,0.27342 0,0.41013zM243.28204,182.5034c0.01709,0 0.02392,-0.00684 0.02392,-0.02734c-0.00684,-0.02392 -0.00684,-0.17089 -0.00684,-0.19481c-0.00342,-0.05127 -0.00342,-0.05468 -0.05468,-0.05468c-0.06494,0 -0.12988,0 -0.19481,0h-1.13812c-0.03418,0 -0.05127,-0.01595 -0.05127,-0.04785v-0.01709c0,-0.25975 0,-0.39305 0,-0.6528c0,-0.23241 0,-0.46482 0,-0.69723c0,-0.26659 0,-0.53317 0,-0.79976c0,-0.1914 0,-0.37937 0,-0.57077c0,-0.15722 0.00342,-0.3076 0.06152,-0.45798c0.02734,-0.07519 0.06494,-0.13671 0.11962,-0.19481c0.07177,-0.07519 0.16747,-0.11962 0.25975,-0.16405c0.06836,-0.03076 0.13671,-0.0581 0.2119,-0.0581c0.08886,0 0.17772,-0.00684 0.26317,0c0.17089,0.01025 0.32811,0.0581 0.4614,0.17089c0.01025,0.01025 0.02392,0.02051 0.04101,0.03418c0,-0.01709 0,-0.02392 0,-0.03076c-0.0376,-0.18798 -0.09228,-0.37254 -0.17772,-0.54343c-0.07519,-0.1538 -0.17431,-0.28709 -0.3076,-0.39305c-0.14013,-0.10937 -0.29735,-0.17772 -0.47849,-0.1914c-0.18798,-0.01025 -0.36912,0.02734 -0.53659,0.10595c-0.20507,0.0957 -0.37596,0.22899 -0.51267,0.41013c-0.08544,0.1162 -0.16064,0.23924 -0.21532,0.37596c-0.0957,0.23924 -0.13329,0.49216 -0.14355,0.74849c0,0.06152 0,0.12646 0,0.18798c0,0.18456 0,0.36912 0,0.55368c0,0.13329 0,0.26659 0,0.39988c0,0.15038 0,0.30077 0,0.45115c0,0.19823 0,0.39988 0,0.59811v0.41697c0,0.14355 0,0.28709 0,0.43064c0,0.06836 0,0.13329 0,0.20165c0,0.02051 0.00684,0.02734 0.02734,0.02734c0.03076,0 0.06494,0.00342 0.0957,0.00342c0.33836,-0.00342 0.67672,-0.00684 1.01508,-0.01025c0.1914,-0.00342 0.38279,-0.00684 0.57419,-0.00684c0.19481,0 0.39305,0 0.58786,0h0.08544z"/><path d="M237.08559,182.54783l-1.40129,-2.43004l0.77925,-1.35002l3.36994,0.66989v2.39587z"/><path d="M239.83007,179.05827l-3.08626,-0.77242l0.39988,-0.74166l2.77524,1.1142z"/><path d="M239.98729,178.34395l-2.53941,-1.29534l0.20165,-0.34861l2.45397,1.45939c-0.03418,0.06152 -0.07861,0.12304 -0.10937,0.17089c-0.00684,0.00684 -0.00684,0.01367 -0.00684,0.01367z"/></g></g></g></svg>