<svg version="1.1" xmlns="http://www.w3.org/2000/svg" xmlns:xlink="http://www.w3.org/1999/xlink" width="14.49785" height="12.55614" viewBox="0,0,14.49785,12.55614"><g transform="translate(-172.75109,-353.72193)"><g stroke="none" stroke-miterlimit="10"><path d="M176.50446,366.05386l-3.4933,-6.05386l3.4933,-6.05386h6.99108l3.4933,6.05386l-3.4933,6.05386z" fill="#019e61"/><path d="M183.36553,354.17037h-6.73099l-3.36774,5.82964l3.36774,5.82964h6.73099l3.36774,-5.82964l-3.36774,-5.82964M183.6256,353.72193l3.62334,6.27807l-3.62334,6.27807h-7.25117l-3.62334,-6.27807l3.62334,-6.27807z" fill="#000000"/><g fill="#ffffff"><path d="M179.68629,357.17927c-0.06165,-0.18496 -0.12331,-0.40256 -0.18496,-0.62016c-0.02901,-0.02901 -0.02901,-0.09067 -0.06165,-0.12331c0.36992,0 0.74347,-0.02901 1.08437,-0.02901v0.02901c-0.02901,0.2176 -0.09067,0.40619 -0.12331,0.59115c-0.02901,0.15595 -0.09067,0.27925 -0.12331,0.4352c-0.02901,0.15232 -0.06165,0.30827 -0.12331,0.46421h0.03264c0.03264,0.03264 0.06165,0.03264 0.09429,0.03264c0.86677,0.12693 1.55221,0.77611 1.73717,1.64651c0.12693,0.62379 -0.02901,1.21131 -0.46421,1.70816c-0.30827,0.36992 -0.74347,0.62016 -1.24032,0.68181c-0.58752,0.06165 -1.11701,-0.06165 -1.58123,-0.4352c-0.40256,-0.34091 -0.6528,-0.77248 -0.71445,-1.30197c-0.09429,-0.71445 0.12331,-1.30197 0.68181,-1.79883c0.30827,-0.27925 0.68181,-0.4352 1.08437,-0.49685h0.12331v-0.03264c-0.03264,-0.12331 -0.06165,-0.2176 -0.09429,-0.34091c-0.02901,-0.12331 -0.09429,-0.27925 -0.12331,-0.40256zM180.03083,361.5893c0.34091,0 0.6528,-0.10155 0.91029,-0.27563c-0.13781,-0.18496 -0.33003,-0.43883 -0.50048,-0.67819c-0.11968,0.07253 -0.25749,0.11605 -0.40981,0.11605c-0.43157,0 -0.77611,-0.34453 -0.77611,-0.77611c0,-0.15595 0.04352,-0.30101 0.12331,-0.42069l-0.68544,-0.48597c-0.17408,0.25749 -0.27563,0.56939 -0.27563,0.91029c0,0.89941 0.71445,1.61387 1.61387,1.61387zM181.64107,359.97905c0,-0.89941 -0.71445,-1.61387 -1.61387,-1.61387c-0.34091,0 -0.65643,0.10517 -0.91392,0.28288c0.14144,0.18859 0.33003,0.44245 0.50048,0.67819c0.11968,-0.07616 0.26112,-0.11968 0.41707,-0.11968c0.43157,0 0.77611,0.34453 0.77611,0.77611c0,0.15595 -0.04715,0.30101 -0.12331,0.42069l0.68544,0.48597c0.17408,-0.25749 0.27563,-0.57301 0.27563,-0.91029z"/><path d="M180.5168,362.311c0.09067,-0.01813 0.18133,-0.04715 0.272,-0.07253c0.00363,0 0.01088,0 0.01813,0c0,0.04715 0.00363,0.09067 0,0.13419c-0.01451,0.11968 -0.05077,0.23211 -0.09792,0.34453c-0.03989,0.09067 -0.08704,0.17408 -0.14507,0.25749c-0.03264,0.04715 -0.05803,0.09792 -0.08704,0.14869c-0.03989,0.06891 -0.08341,0.13781 -0.12331,0.21035c-0.01451,0.02539 -0.02539,0.05077 -0.03627,0.07979c-0.00725,0.01451 -0.02901,0.01451 -0.02901,0.01451l-0.09067,0.25024c0.02176,0.01451 0.04352,0.02901 0.06528,0.04352c0.06165,0.04352 0.11605,0.09792 0.17408,0.14869c0.09792,0.08704 0.19947,0.17408 0.29739,0.26112c0.00725,0.00725 0.01088,0.01088 0.02176,0.02176c-0.01451,0 -0.02176,0 -0.02901,0c-0.1088,-0.01813 -0.2176,-0.03264 -0.32277,-0.05803c-0.05077,-0.01451 -0.09429,-0.03989 -0.14144,-0.05803c-0.07253,-0.03264 -0.14507,-0.05803 -0.2176,-0.09067c-0.04715,-0.02176 -0.09067,-0.05077 -0.13419,-0.07979c-0.0544,-0.03989 -0.10517,-0.07979 -0.15232,-0.12331c-0.04715,-0.04715 -0.08704,-0.10155 -0.13056,-0.15595c-0.02176,-0.02901 -0.04352,-0.06165 -0.06165,-0.09067c-0.04352,-0.07253 -0.09067,-0.14144 -0.11968,-0.22123c-0.01813,-0.04715 -0.03989,-0.09067 -0.05803,-0.13781c-0.03627,-0.10155 -0.06891,-0.20309 -0.09067,-0.31189c-0.02901,-0.15232 -0.02901,-0.30464 -0.02901,-0.45696c0,-0.03627 0.00725,-0.06891 0.01088,-0.10517c0,-0.01813 0.01088,-0.02176 0.02539,-0.01813c0.07253,0.02176 0.14507,0.04352 0.2176,0.05803c0.06891,0.01451 0.13781,0.02176 0.20672,0.03264c0.17771,0.03264 0.35179,0.02539 0.52949,0.01088c0.08341,-0.00725 0.17045,-0.02176 0.25387,-0.03989z"/><path d="M182.67829,362.54311c0.22123,-0.02539 0.44245,-0.0544 0.66368,-0.07979c0.00725,0 0.01088,0 0.02539,0c-0.01451,0.01088 -0.02176,0.01451 -0.02901,0.02176c-0.08704,0.05803 -0.17408,0.11605 -0.25749,0.17771c-0.02539,0.01813 -0.04352,0.04352 -0.07253,0.06165c-0.03264,0.02176 -0.07253,0.03627 -0.1088,0.0544c-0.01813,0.01088 -0.03627,0.01451 -0.0544,0.01813c-0.09792,0.02901 -0.19947,0.05803 -0.30101,0.07979c-0.05803,0.01451 -0.11968,0.01451 -0.17771,0.01451c-0.06165,0 -0.12693,-0.00363 -0.18859,-0.01451c-0.07979,-0.01451 -0.15957,-0.03989 -0.23936,-0.05803c-0.10517,-0.02539 -0.19947,-0.07616 -0.29739,-0.11605c-0.06165,-0.02539 -0.11243,-0.06165 -0.17045,-0.09429c-0.02901,-0.01813 -0.06165,-0.03627 -0.08704,-0.0544c-0.04352,-0.03264 -0.08704,-0.06528 -0.13056,-0.10155c-0.05077,-0.04352 -0.10155,-0.09067 -0.14869,-0.13781c-0.04352,-0.04352 -0.08341,-0.09429 -0.12331,-0.14144c-0.00725,-0.01088 -0.00725,-0.01813 0.00725,-0.02539c0.06528,-0.03264 0.13419,-0.06165 0.19584,-0.09792c0.05803,-0.03264 0.11243,-0.06891 0.16683,-0.10517c0.07616,-0.0544 0.15232,-0.1088 0.22123,-0.17045c0.06528,-0.0544 0.11968,-0.11605 0.17771,-0.17408c0.06891,-0.07253 0.13419,-0.14507 0.18859,-0.22848c0.04352,-0.06891 0.09067,-0.13419 0.13419,-0.20309c0.01088,-0.01088 0.01451,-0.02539 0.02539,-0.04715c0.03627,0.04352 0.06891,0.07979 0.09429,0.11968c0.03989,0.05803 0.07253,0.11968 0.10155,0.18133c0.02539,0.05077 0.04352,0.10517 0.06165,0.15957c0.02176,0.07253 0.03627,0.14507 0.0544,0.22123c0.01451,0.06891 0.02901,0.13781 0.04715,0.20672c0.01813,0.06165 0.03627,0.12331 0.05803,0.18496c0.01451,0.04352 0.02901,0.08341 0.04715,0.12693l0.12693,0.22485z"/><path d="M178.76149,362.00636c0.05077,0.03264 0.1088,0.06165 0.1632,0.09067c0.0544,0.02539 0.11243,0.05077 0.17771,0.08341c-0.02901,0.02901 -0.0544,0.0544 -0.08341,0.07616c-0.04715,0.03989 -0.09792,0.07616 -0.15232,0.10517c-0.0544,0.02901 -0.1088,0.05077 -0.16683,0.07253c-0.05803,0.02176 -0.11605,0.04352 -0.17771,0.06165c-0.09792,0.02901 -0.20309,0.03989 -0.30101,0.07253c-0.05077,0.01813 -0.1088,0.02901 -0.1632,0.04352c-0.03989,0.01088 -0.07616,0.02539 -0.11968,0.03989v0v0l-0.25024,0.08341c-0.00363,0.03627 -0.00725,0.07616 -0.00725,0.11243c-0.00363,0.12331 0.03264,0.23936 0.04715,0.35904c0.01813,0.13419 0.03989,0.26475 0.06165,0.39893c0,0.00363 0,0.00725 0,0.02176c-0.01088,-0.01451 -0.01813,-0.02539 -0.02176,-0.03264c-0.08704,-0.12693 -0.17045,-0.25749 -0.25387,-0.38805c-0.02901,-0.04715 -0.06165,-0.09067 -0.09067,-0.13781c-0.01813,-0.02901 -0.03627,-0.05803 -0.03627,-0.09792c-0.00363,-0.04352 -0.02539,-0.08341 -0.03627,-0.12331c-0.04352,-0.15232 -0.06891,-0.30827 -0.0544,-0.46784c0.00363,-0.0544 0.02176,-0.11243 0.03264,-0.16683c0.01088,-0.05803 0.02176,-0.11243 0.03989,-0.16683c0.01813,-0.0544 0.03989,-0.10517 0.06165,-0.15957c0.02539,-0.06165 0.05077,-0.12331 0.07979,-0.18133c0.02539,-0.04715 0.05077,-0.09792 0.08341,-0.14144c0.05803,-0.07979 0.11605,-0.15595 0.17771,-0.22848c0.03627,-0.04352 0.08341,-0.08341 0.12331,-0.12331c0.01088,-0.00725 0.01813,-0.01813 0.02539,-0.02539c0.02176,-0.02539 0.03264,-0.02539 0.05077,0.00363c0.03264,0.05077 0.06528,0.10155 0.09792,0.15232c0.03264,0.04715 0.06528,0.08704 0.09792,0.13056c0.03264,0.03989 0.06165,0.07616 0.09429,0.11243c0.02901,0.03264 0.06165,0.06165 0.09429,0.09429c0.03264,0.03264 0.06528,0.06528 0.09792,0.09429c0.04352,0.03627 0.08341,0.06891 0.12693,0.10155c0.05803,0.04352 0.11968,0.08704 0.18133,0.12693z"/><path d="M183.99115,359.52209c0.00363,-0.00363 0.00725,-0.00363 0.01813,-0.01088c-0.00363,0.01813 -0.00725,0.03264 -0.00725,0.04352c-0.02176,0.12331 -0.04715,0.24299 -0.06528,0.36629c-0.01088,0.06528 -0.04352,0.12331 -0.07253,0.18133c-0.02901,0.05803 -0.06528,0.11605 -0.10155,0.17045c-0.03989,0.0544 -0.08341,0.1088 -0.12693,0.15595c-0.04352,0.04715 -0.09067,0.08704 -0.14144,0.12693c-0.04352,0.03627 -0.09067,0.06165 -0.13781,0.09067c-0.05077,0.02901 -0.10155,0.05803 -0.15232,0.08341c-0.07253,0.03264 -0.15232,0.06528 -0.22848,0.09429c-0.05803,0.02176 -0.11968,0.04352 -0.18496,0.05803c-0.09067,0.01813 -0.18133,0.03264 -0.272,0.03989c-0.09067,0.00725 -0.18133,0.00725 -0.272,0.00725c-0.01451,0 -0.02539,-0.00363 -0.04715,-0.00363c0.01088,-0.02539 0.02176,-0.04352 0.02901,-0.06165c0.01813,-0.05803 0.03989,-0.11605 0.05803,-0.17408c0.04352,-0.13056 0.06528,-0.272 0.08704,-0.40981c0.02539,-0.18133 0.02176,-0.35904 0.00725,-0.53675c-0.00725,-0.07979 -0.02176,-0.15595 -0.03627,-0.23211c-0.00725,-0.03264 -0.01813,-0.06528 -0.02901,-0.10517c0.04715,0.01088 0.08341,0.01451 0.11605,0.02539c0.07979,0.02901 0.15957,0.05803 0.23573,0.09792c0.06165,0.03264 0.11968,0.07253 0.18133,0.1088c0.05077,0.02539 0.09792,0.0544 0.14507,0.08341c0.07253,0.03989 0.14507,0.08341 0.2176,0.12331c0.01813,0.00725 0.03989,0.01813 0.05803,0.02539v0l0.28288,0.13056c0.06528,-0.06891 0.12331,-0.14507 0.18859,-0.21397c0.08341,-0.09067 0.17045,-0.18133 0.25387,-0.26837z"/><path d="M177.69525,360.89298c-0.10155,-0.02176 -0.19584,-0.06165 -0.29013,-0.11243c-0.05803,-0.03264 -0.11243,-0.06891 -0.17045,-0.10155c-0.0544,-0.03264 -0.1088,-0.06528 -0.15957,-0.09429c-0.06891,-0.03989 -0.14144,-0.07979 -0.21035,-0.11968c-0.02901,-0.01813 -0.06165,-0.03264 -0.09429,-0.04352v0v0l-0.25387,-0.08341c-0.15957,0.16683 -0.28288,0.36629 -0.42432,0.54763c-0.02901,0.03989 -0.05803,0.07979 -0.08704,0.11968c0,0.00363 -0.00363,0.00725 -0.01451,0.01451c0.02176,-0.07979 0.03627,-0.15595 0.0544,-0.23211c0.01813,-0.08341 0.03989,-0.17045 0.05803,-0.25387c0.00725,-0.04352 0.01088,-0.09067 0.02176,-0.13419c0.00725,-0.03627 0.01451,-0.07979 0.03627,-0.11243c0.01451,-0.02539 0.03264,-0.05077 0.04715,-0.07616c0.03264,-0.05803 0.06528,-0.11243 0.10155,-0.16683c0.03989,-0.0544 0.07979,-0.1088 0.12693,-0.15595c0.04352,-0.04352 0.09067,-0.08341 0.13781,-0.12331c0.04352,-0.03627 0.09429,-0.06528 0.14144,-0.09429c0.05077,-0.02901 0.09792,-0.05803 0.15232,-0.08341c0.07253,-0.03627 0.14869,-0.06528 0.22485,-0.09429c0.07253,-0.02539 0.14507,-0.05077 0.2176,-0.06528c0.12693,-0.02539 0.25749,-0.04715 0.39168,-0.03989c0.00725,0 0.01088,0 0.02176,0c-0.06891,0.25749 -0.09429,0.51499 -0.07253,0.77611c0.02176,0.26112 0.07979,0.51499 0.18496,0.75435c0,0.00363 -0.00363,0.00725 -0.00363,0.00725c-0.04715,-0.01088 -0.09429,-0.01813 -0.14144,-0.02901z"/><path d="M176.82123,357.87559c-0.05077,0.00725 -0.10155,0.01813 -0.15595,0.02901c-0.01088,0 -0.01813,0 -0.02901,0c0.00725,-0.00363 0.01451,-0.01088 0.02176,-0.01451c0.15232,-0.09067 0.30827,-0.18496 0.46059,-0.27925c0.05803,-0.03627 0.11243,-0.07253 0.16683,-0.1088c0.03627,-0.02539 0.07616,-0.03989 0.11968,-0.04715c0.05077,-0.00725 0.10155,-0.02176 0.15595,-0.02901c0.04715,-0.01088 0.09792,-0.01088 0.14869,-0.01088c0.05803,0.00363 0.11605,0.00363 0.17408,0.01451c0.07979,0.01451 0.15595,0.02901 0.23211,0.0544c0.10517,0.03627 0.21035,0.07616 0.31189,0.11968c0.03989,0.01451 0.07979,0.03989 0.11605,0.06165c0.03989,0.02176 0.07979,0.04715 0.11605,0.07253c0.03264,0.02176 0.06528,0.04352 0.09429,0.06891c0.03627,0.02539 0.06891,0.0544 0.10155,0.08341c0.01088,0.00725 0.01451,0.01813 0,0.02539c-0.06891,0.03989 -0.13781,0.07979 -0.20309,0.12331c-0.06165,0.03989 -0.11605,0.08704 -0.17408,0.13419c-0.04715,0.03989 -0.09429,0.07979 -0.13781,0.12331c-0.03264,0.03264 -0.06165,0.06528 -0.09067,0.10155c-0.04352,0.0544 -0.08704,0.10517 -0.13056,0.15957c-0.03627,0.04352 -0.06891,0.09067 -0.09792,0.13781c-0.02901,0.05077 -0.05803,0.10155 -0.08704,0.15232c-0.02901,0.0544 -0.05803,0.1088 -0.08704,0.16683c-0.01451,-0.02539 -0.03627,-0.05077 -0.04715,-0.07979c-0.03627,-0.09067 -0.06891,-0.18133 -0.10155,-0.272c-0.01088,-0.03989 -0.01451,-0.08341 -0.02539,-0.12331c-0.01451,-0.06165 -0.03264,-0.11968 -0.04715,-0.18133c-0.00363,-0.00363 -0.00363,-0.00725 -0.00363,-0.01451c-0.02901,-0.10155 -0.06165,-0.20309 -0.09067,-0.30464c0,-0.00725 -0.00363,-0.01451 -0.01088,-0.02539v0v0l-0.07253,-0.20672c-0.03264,0 -0.06165,0 -0.09429,0c-0.07253,0.00363 -0.14144,0.02539 -0.21397,0.03264c-0.10517,0.01451 -0.21035,0.02539 -0.31552,0.03989z"/><path d="M182.41717,356.99431c0.00725,0.00725 0.01088,0.01088 0.01451,0.01813c0.09429,0.14507 0.18496,0.29013 0.27563,0.4352c0.01451,0.02176 0.02176,0.04715 0.02901,0.07253c0.02901,0.09792 0.03989,0.19584 0.03989,0.29739c0.00363,0.10517 -0.01088,0.20672 -0.03989,0.30464c-0.02176,0.07253 -0.03989,0.14869 -0.06528,0.22123c-0.03264,0.09429 -0.07253,0.18496 -0.11605,0.27563c-0.02539,0.05077 -0.0544,0.09792 -0.08704,0.14144c-0.0544,0.07253 -0.1088,0.14507 -0.16683,0.21397c-0.02539,0.03264 -0.0544,0.06165 -0.08704,0.09067c-0.01451,-0.02176 -0.02176,-0.03989 -0.03264,-0.05803c-0.04352,-0.07979 -0.08341,-0.16683 -0.13056,-0.24661c-0.02901,-0.0544 -0.06891,-0.1088 -0.10517,-0.15957c-0.03264,-0.04352 -0.06165,-0.09067 -0.09792,-0.13056c-0.03989,-0.05077 -0.08341,-0.09429 -0.12693,-0.13781c-0.03264,-0.03264 -0.06165,-0.06528 -0.09429,-0.09429c-0.02901,-0.02901 -0.06165,-0.05803 -0.09429,-0.08341c-0.04715,-0.03627 -0.09429,-0.07616 -0.14144,-0.1088c-0.04352,-0.02901 -0.09067,-0.05803 -0.13419,-0.08704c-0.00725,-0.00725 -0.01451,-0.01451 -0.02176,-0.02176c0.00725,-0.00363 0.01813,-0.01451 0.02539,-0.01451c0.05077,-0.02176 0.10155,-0.04715 0.15232,-0.06528c0.05077,-0.01813 0.1088,-0.03264 0.1632,-0.04715c0.03989,-0.01088 0.07979,-0.01813 0.11968,-0.02901c0.09792,-0.02539 0.19221,-0.05077 0.28651,-0.07616c0.04352,-0.01088 0.08704,-0.02176 0.13056,-0.03627v0l0.29739,-0.08341c-0.00725,-0.09067 -0.01451,-0.18133 -0.01451,-0.27563c0,-0.09792 0.01088,-0.19947 0.01813,-0.29739c0,-0.00363 0.00363,-0.01088 0.00363,-0.01088z"/><path d="M180.99189,356.98705c-0.09067,0.05803 -0.18496,0.1088 -0.27925,0.1632c-0.01088,0.00363 -0.01813,0.00725 -0.03627,0.01451c0.01088,-0.05077 0.02176,-0.09067 0.03264,-0.13419c0.02539,-0.10155 0.05077,-0.19947 0.07616,-0.29739c0.00363,-0.02539 0.01813,-0.03989 0.03989,-0.05077c0.13056,-0.07253 0.26475,-0.14869 0.39531,-0.22485c0.13056,-0.07616 0.26112,-0.14869 0.39531,-0.22485c0.13419,-0.07253 0.26837,-0.14869 0.40256,-0.22485c0.06891,-0.03627 0.13781,-0.06891 0.20672,-0.10517c0.02539,-0.01451 0.05077,-0.03264 0.07616,-0.04715c0.01451,-0.01088 0.02176,-0.00725 0.03264,0.00725c0.04352,0.06891 0.09067,0.13781 0.13419,0.20672c0.01451,0.01813 0.01088,0.03264 -0.00725,0.04352c-0.0544,0.02901 -0.1088,0.06165 -0.1632,0.09429c-0.14507,0.08704 -0.29013,0.18133 -0.4352,0.26837c-0.11605,0.06891 -0.23573,0.13781 -0.35541,0.20672c-0.17408,0.09792 -0.34453,0.19947 -0.51861,0.30101z"/><path d="M179.30187,357.09223c0,0.00725 0.00363,0.01451 0.00363,0.02901c-0.56213,-0.32277 -1.11701,-0.64555 -1.67552,-0.96832c0.00725,-0.00725 0.01088,-0.01451 0.01451,-0.02176c0.0544,-0.06528 0.1088,-0.13056 0.15957,-0.19584c0.01451,-0.01451 0.02539,-0.01813 0.04352,-0.00725c0.17771,0.10517 0.35904,0.21035 0.53675,0.31189c0.18859,0.1088 0.3808,0.2176 0.56939,0.3264c0.06528,0.03989 0.13419,0.07616 0.20309,0.11605c0.01813,0.01088 0.02901,0.02539 0.03627,0.04715c0.03264,0.12331 0.06891,0.24299 0.10517,0.36629z"/></g></g></g></svg>