<svg version="1.1" xmlns="http://www.w3.org/2000/svg" xmlns:xlink="http://www.w3.org/1999/xlink" width="14.49785" height="12.55614" viewBox="0,0,14.49785,12.55614"><g transform="translate(-172.75109,-353.72193)"><g stroke="none" stroke-miterlimit="10"><path d="M176.50446,366.05386l-3.4933,-6.05386l3.4933,-6.05386h6.99108l3.4933,6.05386l-3.4933,6.05386z" fill="#f04b22"/><path d="M183.36553,354.17037h-6.73099l-3.36774,5.82964l3.36774,5.82964h6.73099l3.36774,-5.82964l-3.36774,-5.82964M183.6256,353.72193l3.62334,6.27807l-3.62334,6.27807h-7.25117l-3.62334,-6.27807l3.62334,-6.27807z" fill="#000000"/><path d="M183.58616,358.58246c0.02373,0.0791 0.02373,0.1582 0.02373,0.24125c-0.01186,0.36385 -0.01977,0.73166 -0.03559,1.09551c-0.01582,0.36781 -0.03955,0.73957 -0.05932,1.10737c-0.01582,0.29266 -0.03559,0.58137 -0.05141,0.87008c-0.01186,0.22938 -0.02373,0.45877 -0.03559,0.68815c-0.00395,0.05141 -0.00791,0.05537 -0.06328,0.06328c-0.11469,0.01186 -0.22543,0.02768 -0.34012,0.03559c-0.1226,0.00791 -0.24125,0.01582 -0.36385,0.02373c-0.07119,0.00395 -0.14238,0.01582 -0.21356,0.01582c-0.05141,0 -0.09887,0 -0.14633,0c-0.00395,0.39153 -0.00791,0.76725 -0.01186,1.14692c-0.01582,0 -0.02768,0 -0.03955,0c-0.27289,0.00791 -0.54182,0.01186 -0.81075,0.01582c-0.03164,0 -0.0435,-0.00395 -0.0435,-0.03955c0,-0.1582 0,-0.31639 -0.00791,-0.47459c-0.00791,-0.15029 -0.01977,-0.30453 -0.02768,-0.45877c0,-0.00791 0,-0.02373 0,-0.02373c-0.00264,-0.03691 -0.02109,-0.05405 -0.05537,-0.05141c-0.08701,0.00791 -0.17006,0.01582 -0.26498,0.02373c-0.00791,0.34012 0.01186,0.6842 0.01977,1.02827c-0.01582,0 -0.02373,0 -0.03559,0c-0.1582,0.00395 -0.31244,0.00791 -0.46668,0.01186c-0.02768,0 -0.03955,-0.00395 -0.03955,-0.03559c-0.01186,-0.25311 -0.03164,-0.50623 -0.04746,-0.75934c-0.00395,-0.06328 -0.00791,-0.12656 -0.01186,-0.18983c-0.00395,-0.01977 -0.00791,-0.03164 -0.03164,-0.03164c-0.07514,0.00395 -0.14633,0.00791 -0.22147,0.00791c-0.01977,0.00395 -0.02373,0.00791 -0.02373,0.03164c0.01582,0.18983 0.02768,0.37967 0.03955,0.5695c0.01186,0.13842 0.01977,0.27289 0.02768,0.41526c-0.24125,0.00791 -0.47854,0.01186 -0.71979,0.01977c-0.00791,-0.3243 -0.01582,-0.64465 -0.01977,-0.96895c-0.03164,0 -0.05537,0.00791 -0.0791,0c-0.03164,-0.01186 -0.05537,-0.00395 -0.0791,0.00395c-0.03955,0.01186 -0.08305,0.02373 -0.12656,0.03559c-0.01977,0.00395 -0.01977,0.01977 -0.01977,0.03559c0,0.19379 0,0.38758 0,0.58137v0.32035c-0.27684,0.01186 -0.54973,0.01977 -0.82262,0.03164c-0.03559,-0.34012 -0.07119,-0.67629 -0.10678,-1.02036c-0.11469,0.00791 -0.22938,0.01582 -0.34012,0.02373c-0.09887,0.00395 -0.2017,0.01582 -0.30453,0.01582c-0.09096,0 -0.18588,-0.00791 -0.27684,0c-0.06328,0.00395 -0.09887,-0.02373 -0.13842,-0.06328c-0.05537,-0.05141 -0.11074,-0.10283 -0.16215,-0.1582c-0.01582,-0.01186 -0.02768,-0.03164 -0.03164,-0.05141c-0.06328,-0.27289 -0.12656,-0.54973 -0.18588,-0.82657c-0.05141,-0.2452 -0.10283,-0.48645 -0.15029,-0.73166c-0.01582,-0.07514 -0.03164,-0.15029 -0.0435,-0.22543c-0.01977,-0.11074 -0.03955,-0.22543 -0.05537,-0.33617c-0.0435,-0.2808 -0.0791,-0.56555 -0.10283,-0.8503c-0.01977,-0.25707 -0.04746,-0.51018 -0.06723,-0.76725c-0.00791,-0.0791 -0.01582,-0.1582 -0.01582,-0.23729c0,-0.02768 0.00395,-0.05537 0.01186,-0.08305c0.1226,-0.37967 0.27684,-0.75143 0.45877,-1.10737c0.02373,-0.0435 0.05932,-0.08305 0.09492,-0.11865c0.19774,-0.20565 0.39944,-0.40735 0.59719,-0.61696c0.07119,-0.07514 0.1582,-0.1226 0.24125,-0.17006c0.03955,-0.02373 0.08305,-0.0435 0.1226,-0.06328l-0.47063,1.32489l1.052,-0.13842l-0.38362,1.46727l1.82716,-2.38876l-1.11528,0.08305l0.22147,-0.75934c0.06723,-0.01977 0.13447,-0.03559 0.2017,-0.05141c0.10283,-0.01977 0.20961,-0.03559 0.31244,-0.05141c0.2808,-0.0435 0.5616,-0.02768 0.84239,-0.01582c0.21752,0.01186 0.42713,0.07119 0.63674,0.13051c0.22543,0.06723 0.4469,0.15029 0.66047,0.2452c0.18588,0.08305 0.35594,0.19774 0.51809,0.32035c0.25311,0.18983 0.49041,0.39153 0.70397,0.62883c0.23334,0.25707 0.41922,0.55369 0.56555,0.87008c0.03559,0.07514 0.0435,0.16215 0.06328,0.2452c0.00791,0.02768 0.01186,0.05932 0.01977,0.08701zM179.31883,360.68251c0,-0.52996 -0.43108,-0.96499 -0.96104,-0.96499c-0.52996,0 -0.96499,0.43108 -0.96499,0.96104c0,0.52996 0.43108,0.96499 0.96104,0.96499c0.52996,0 0.96499,-0.43108 0.96499,-0.96104zM180.61208,362.03113c0.03559,-0.00395 0.07514,-0.01186 0.11469,-0.01977c-0.00395,-0.01582 -0.00791,-0.02373 -0.00791,-0.03164c-0.1226,-0.30057 -0.24125,-0.60114 -0.36781,-0.90172c-0.08305,-0.20565 -0.17006,-0.41131 -0.22938,-0.62883c-0.01186,-0.05141 -0.02373,-0.09887 -0.03559,-0.14633c-0.00791,-0.02768 -0.02373,-0.02373 -0.03955,-0.01186c-0.00791,0.00395 -0.01186,0.01582 -0.01186,0.02373c-0.05141,0.19774 -0.11074,0.39153 -0.16215,0.58532c-0.11074,0.41922 -0.21752,0.83844 -0.35199,1.24975c-0.00395,0.00791 -0.01186,0.01977 -0.01186,0.02768c-0.01977,0.05141 -0.03559,0.10678 -0.05537,0.1582c0.00395,0.00395 0.01186,0.00395 0.01186,0.00395c0.01186,-0.00791 0.02768,-0.01582 0.03955,-0.02768c0.1582,-0.12656 0.31244,-0.25311 0.47063,-0.37967c0.01977,-0.01582 0.04746,-0.02768 0.07119,-0.03559c0.01977,-0.00791 0.04746,-0.01186 0.05932,-0.02373c0.01582,-0.01977 0.03164,-0.01582 0.05141,-0.01186c0.15029,0.03559 0.29266,0.08701 0.42713,0.15424c0.01186,0.00791 0.03955,0.00791 0.03955,0.00791zM182.96128,360.35425c0,-0.52996 -0.43108,-0.96499 -0.96104,-0.96499c-0.52996,0 -0.96499,0.43108 -0.96499,0.96104c0,0.52996 0.43108,0.96499 0.96104,0.96499c0.52996,0 0.96499,-0.43108 0.96499,-0.96104z" fill="#ffffff"/></g></g></svg>