<svg version="1.1" xmlns="http://www.w3.org/2000/svg" xmlns:xlink="http://www.w3.org/1999/xlink" width="14.49785" height="12.55614" viewBox="0,0,14.49785,12.55614"><g transform="translate(-172.75108,-353.72193)"><g stroke="none" stroke-miterlimit="10"><path d="M176.50446,366.05386l-3.4933,-6.05386l3.4933,-6.05386h6.99108l3.4933,6.05386l-3.4933,6.05386z" fill="#f2b100"/><path d="M183.36552,354.17037h-6.73099l-3.36774,5.82964l3.36774,5.82964h6.73099l3.36774,-5.82964l-3.36774,-5.82964M183.6256,353.72193l3.62334,6.27807l-3.62334,6.27807h-7.25117l-3.62334,-6.27807l3.62334,-6.27807z" fill="#000000"/><g fill="#ffffff"><path d="M184.04501,359.93459c-1.11878,1.31569 -2.23757,2.60453 -3.39215,3.92022c0.06265,-0.20138 0.12978,-0.39829 0.19691,-0.59519c0.06713,-0.16558 0.12978,-0.36249 0.19691,-0.52807c0.06713,-0.22823 0.16558,-0.46094 0.23271,-0.65785c0.06713,-0.29983 0.16558,-0.59519 0.23271,-0.89055c0.06713,-0.19691 0.12978,-0.39381 0.19691,-0.59072c0.06713,-0.19691 0.16558,-0.42961 0.26403,-0.62652c0,-0.02088 0.01044,-0.03133 0.03133,-0.03133z"/><path d="M180.95269,361.81414c-0.13425,0.29536 -0.23271,0.62204 -0.33116,0.9532c-0.06265,0.22823 -0.1611,0.42514 -0.22823,0.65785c-0.09845,0.32669 -0.23271,0.62204 -0.33116,0.9532c-0.0358,0.03133 -0.0358,0.06713 -0.06713,0.09845c0,-0.03133 -0.03133,-0.06713 -0.03133,-0.09845c-0.13425,-0.32669 -0.23271,-0.62652 -0.33116,-0.9532c-0.09845,-0.22823 -0.16558,-0.42514 -0.26403,-0.65785c-0.09845,-0.32669 -0.19691,-0.65785 -0.29536,-0.9532c-0.06713,-0.19691 -0.12978,-0.42961 -0.19691,-0.62652c-0.09845,-0.22823 -0.16558,-0.46094 -0.26403,-0.65785c-0.06713,-0.19691 -0.12978,-0.39381 -0.19691,-0.55939l-0.03133,-0.03133h3.22657v0.03133c-0.06265,0.16558 -0.1611,0.36249 -0.22823,0.55939c-0.06713,0.19691 -0.16558,0.42514 -0.23271,0.65785c-0.06713,0.19691 -0.12978,0.42961 -0.19691,0.62652z"/><path d="M179.14026,363.26409c0.06265,0.20138 0.12978,0.39829 0.22823,0.59519v0.03133h-0.03133c-1.11878,-1.31569 -2.23757,-2.63586 -3.39215,-3.95155h2.04066c0.0358,0 0.06713,0 0.06713,0.03133c0.06713,0.19691 0.16558,0.42961 0.23271,0.62652c0.06265,0.19691 0.12978,0.39381 0.19691,0.59072c0.09845,0.29536 0.16558,0.59519 0.26403,0.89055c0.06713,0.19691 0.12978,0.42514 0.19691,0.65785c0.06713,0.16558 0.12978,0.36249 0.19691,0.52807z"/><path d="M177.99015,359.63923h-1.91088v-0.03133c0.29536,-0.29536 0.59072,-0.59072 0.85475,-0.92188c0.16558,-0.13425 0.29983,-0.29983 0.42961,-0.42961c0.02387,-0.02088 0.04624,-0.03133 0.06713,-0.03133h1.41414c-0.03133,0.06265 -0.06713,0.09845 -0.09845,0.12978c-0.16558,0.26403 -0.29536,0.52807 -0.46094,0.7921c-0.06713,0.12978 -0.16558,0.23271 -0.23271,0.36249c-0.0358,0.03133 -0.0358,0.06265 -0.06713,0.12978z"/><path d="M181.25252,358.35486c-0.0358,-0.03133 -0.0358,-0.06265 -0.06713,-0.12978h1.38282c0.03133,0 0.06713,0 0.09845,0.03133c0.12978,0.13425 0.25956,0.29983 0.39381,0.42961c0.29536,0.33116 0.59072,0.62652 0.85475,0.92188v0.03133h-1.87956c-0.03133,-0.06265 -0.06713,-0.09845 -0.06713,-0.12978c-0.09845,-0.12978 -0.1611,-0.23271 -0.22823,-0.36249c-0.1611,-0.26403 -0.32669,-0.52807 -0.49227,-0.7921z"/><path d="M178.39291,359.5721c0.12978,-0.22823 0.26403,-0.46094 0.39381,-0.65785c0.12978,-0.22823 0.26403,-0.46094 0.39381,-0.65785c0.02387,-0.02088 0.04624,-0.03133 0.06713,-0.03133h1.5484c0,0 0.03133,0 0.03133,0.03133c0.12978,0.19691 0.26403,0.42514 0.39381,0.65785c0.13425,0.19691 0.29983,0.42961 0.42961,0.65785c0,0.0358 0.03133,0.0358 0.03133,0.06713h-3.3295c0,0 0.03133,-0.03133 0.03133,-0.06713z"/><path d="M180.08899,357.81337c0,-0.00448 0,-0.00895 0,-0.00895c0.7205,-0.62204 1.44099,-1.23961 2.16597,-1.86613c0.00448,0.01343 0.01343,0.02238 0.0179,0.0358c0.06265,0.13425 0.1253,0.27298 0.17901,0.41171c0.0358,0.09398 0.06265,0.19243 0.09398,0.28641c0.00895,0.03133 -0.01343,0.0358 -0.03133,0.04475c-0.17006,0.08055 -0.34011,0.15663 -0.51017,0.23271c-0.54149,0.25061 -1.08298,0.49674 -1.62448,0.74735c-0.07608,0.0358 -0.15215,0.06713 -0.22823,0.09845c-0.0179,0.00448 -0.04028,0.00895 -0.06265,0.0179z"/><path d="M178.196,355.92934c-0.00895,-0.01343 -0.01343,-0.02685 -0.02685,-0.04475c0.26403,-0.1253 0.51912,-0.24613 0.78762,-0.37144c0.04028,0.68917 0.06265,1.37387 0.20138,2.04514c-0.04028,0.01343 -0.05818,-0.01343 -0.0716,-0.04028c-0.1074,-0.19691 -0.21033,-0.39829 -0.31773,-0.59519c-0.15663,-0.29088 -0.32221,-0.57729 -0.48331,-0.8637c-0.02685,-0.04475 -0.06265,-0.08503 -0.0895,-0.12978z"/><path d="M177.36363,357.41061c-0.02685,-0.00895 -0.0358,-0.0179 -0.02238,-0.04923c0.0895,-0.18796 0.17453,-0.37591 0.26403,-0.56387c0.02238,-0.04028 0.02685,-0.04475 0.05818,-0.01343c0.23271,0.21033 0.46989,0.42066 0.7026,0.63547c0.09845,0.0895 0.18348,0.18348 0.27746,0.27298c0.0179,0.0179 0.0179,0.1253 0.0179,0.1253c0,0 -0.90398,-0.27746 -1.29779,-0.40724z"/></g></g></g></svg>