<svg version="1.1" xmlns="http://www.w3.org/2000/svg" xmlns:xlink="http://www.w3.org/1999/xlink" width="56.95872" height="54.70244" viewBox="0,0,56.95872,54.70244"><g transform="translate(-151.52064,-333.92046)"><g stroke-miterlimit="10"><path d="M165.33743,335.17046h29.32515c6.93813,0.00556 12.56127,5.62862 12.56679,12.56675v27.06891c-0.00555,6.93817 -5.62866,12.56123 -12.56679,12.56678h-29.32515c-6.93813,-0.00556 -12.56123,-5.62861 -12.56679,-12.56678v-27.06891c0.00552,-6.93817 5.62861,-12.56123 12.56679,-12.56675z" fill="#ebebeb" stroke="#000000" stroke-width="2.5"/><path d="M172.77016,351.56519h14.45967c6.65482,0 12.04973,5.39485 12.04973,12.04973c0,6.65482 -5.39491,12.04973 -12.04973,12.04973h-16.86962v-4.81989h16.86962c3.99304,0 7.22984,-3.2368 7.22984,-7.22984c0,-3.99292 -3.2368,-7.22984 -7.22984,-7.22984h-14.45967v7.22984h-2.40994l-9.63978,-9.63978l9.63978,-9.63978h2.40994z" fill="#000000" stroke="none" stroke-width="1"/></g></g></svg>