<svg version="1.1" xmlns="http://www.w3.org/2000/svg" xmlns:xlink="http://www.w3.org/1999/xlink" width="14.49785" height="12.55614" viewBox="0,0,14.49785,12.55614"><g transform="translate(-172.75109,-353.72193)"><g stroke="none" stroke-miterlimit="10"><path d="M176.50446,366.05386l-3.4933,-6.05386l3.4933,-6.05386h6.99108l3.4933,6.05386l-3.4933,6.05386z" fill="#14a2cc"/><path d="M183.36553,354.17037h-6.73099l-3.36774,5.82964l3.36774,5.82964h6.73099l3.36774,-5.82964l-3.36774,-5.82964M183.6256,353.72193l3.62334,6.27807l-3.62334,6.27807h-7.25117l-3.62334,-6.27807l3.62334,-6.27807z" fill="#000000"/><path d="M181.89454,361.51928c0.01946,0.0227 0.01622,0.04865 0.00324,0.0746c0,0.00973 0,0.0227 0,0.03568c0,0.02595 0.00648,0.05514 0,0.07785c-0.01946,0.09082 -0.04541,0.17839 -0.07136,0.26921c-0.00648,0.01946 -0.0227,0.03892 -0.03568,0.05839c-0.00324,0.00973 -0.00973,0.01622 -0.01298,0.0227c-0.09731,0.18813 -0.21732,0.35679 -0.36328,0.50599c-0.18164,0.18489 -0.38923,0.3276 -0.62925,0.42815c-0.13623,0.05514 -0.27246,0.10055 -0.41842,0.12326c-0.0746,0.01298 -0.15245,0.01946 -0.19786,0.0227c-0.253,-0.00973 -0.47032,-0.01946 -0.6844,-0.08109c-0.2238,-0.06487 -0.44437,-0.13947 -0.63898,-0.27571c-0.18489,-0.12974 -0.33734,-0.29192 -0.45086,-0.48978c-0.01622,-0.02919 -0.03892,-0.05839 -0.05839,-0.08758c-0.00324,-0.00648 -0.00973,-0.01622 -0.00973,-0.0227c-0.04217,-0.16218 -0.08758,-0.32436 -0.1265,-0.48978c-0.00973,-0.03892 -0.02595,-0.08109 -0.00324,-0.12326c0,-0.00648 0,-0.01298 0,-0.01946c-0.02595,-0.06811 -0.0227,-0.13299 0.00324,-0.2011c0.00648,-0.0227 0,-0.05189 0,-0.07785c-0.00324,-0.04217 -0.00973,-0.08433 -0.01298,-0.1265c0,-0.00324 0,-0.00973 0,-0.01298c0.00973,-0.09082 0.0227,-0.18164 0.03568,-0.27246c0.01622,-0.11676 0.03244,-0.2303 0.05514,-0.34706c0.00973,-0.05514 0.01622,-0.11352 0.06811,-0.15245c0.00648,-0.00324 0.00648,-0.01298 0.00648,-0.01946c-0.00324,-0.03892 0.01298,-0.06487 0.03892,-0.09082c0.00648,-0.00648 0.00973,-0.01946 0.01298,-0.03244c0.00324,-0.00973 0,-0.02595 0.00648,-0.03568c0.04541,-0.06487 0.05839,-0.14596 0.10055,-0.21408c0.0227,-0.03568 0.03568,-0.0746 0.05189,-0.11352c0.03244,-0.07136 0.06487,-0.14596 0.1038,-0.21408c0.0227,-0.03892 0.02919,-0.08758 0.05514,-0.12326c0.03892,-0.05839 0.05839,-0.1265 0.08758,-0.18813c0.03892,-0.08109 0.0746,-0.15893 0.11352,-0.24002c0.01298,-0.02595 0.02595,-0.05189 0.03892,-0.07785c0.0227,-0.04217 0.04865,-0.08109 0.06163,-0.12974c0.00973,-0.03892 0.02919,-0.0746 0.04865,-0.10704c0.0227,-0.03892 0.04217,-0.07785 0.05839,-0.12001c0.03244,-0.08758 0.08433,-0.16867 0.12326,-0.25624c0.0227,-0.04865 0.03892,-0.1038 0.06811,-0.15245c0.03244,-0.05839 0.04865,-0.12974 0.09731,-0.17839c0,-0.04865 0.03244,-0.08433 0.05189,-0.1265c0.01298,-0.02595 0.0227,-0.05189 0.03244,-0.07785c0.00324,-0.00973 0.00973,-0.0227 0.01622,-0.03568c0.00324,-0.01298 0.00648,-0.02595 0.01298,-0.03568c0.05514,-0.06811 0.06163,-0.15893 0.11028,-0.2303c0.01298,-0.01946 0.02919,-0.03568 0.04217,-0.05514c0.00648,-0.00648 0.00973,-0.01946 0.01298,-0.02919c0.00648,-0.01946 0.01298,-0.04217 0.0227,-0.06163c0.03568,-0.06811 0.07136,-0.13299 0.10704,-0.2011c0.04541,-0.09082 0.09406,-0.17839 0.14272,-0.26921c0.01946,-0.03892 0.03892,-0.07785 0.05839,-0.11676c0.01946,-0.03892 0.05189,-0.04217 0.07785,-0.00973c0.00973,0.01298 0.01622,0.02919 0.0227,0.04541c0.03892,0.08758 0.07785,0.17191 0.11676,0.25949c0.05189,0.11352 0.10055,0.22705 0.15245,0.33734c0.02919,0.06163 0.05839,0.12326 0.08758,0.18489c0.06163,0.13299 0.12001,0.26597 0.18164,0.39896c0.03244,0.07136 0.06487,0.14272 0.09731,0.21408c0.03568,0.08109 0.07136,0.16218 0.10704,0.24002c0.03892,0.09082 0.08433,0.17839 0.1265,0.26921c0.08433,0.18489 0.16867,0.36977 0.253,0.55466c0.04217,0.09082 0.08433,0.17839 0.1265,0.26921c0.04217,0.09082 0.08109,0.18489 0.12326,0.27571c0.04217,0.09406 0.08433,0.18813 0.12974,0.27895c0.07785,0.15569 0.12326,0.31787 0.15893,0.48653c0.01946,0.09082 0.03892,0.18164 0.05839,0.27246c0.00324,0.01298 0,0.02595 0,0.03892c0.00324,0.03892 0,0.08109 0.00973,0.11676c0.00648,0.02595 0.00973,0.04541 0.00324,0.07136c-0.00648,0.01622 0,0.02919 0,0.04541c0.00324,0.00648 0.00973,0.01298 0.00973,0.01622c-0.0227,0.04865 0.02595,0.09731 0,0.14596c0.01622,0.03568 0.00648,0.0746 0.01298,0.11028c0,0.0227 0.01298,0.04541 0,0.07136c-0.00324,0.00648 0,0.0227 0,0.0227zM180.97336,360.35484c0.01946,0.0173 0.02919,0.03568 0.02919,0.05514v-0.05514zM181.34313,361.47387v-0.02919c-0.01946,0 -0.02919,-0.00973 -0.02919,-0.02919v-0.13947c0,-0.05514 -0.02919,-0.11028 -0.02919,-0.16543c-0.02595,-0.11028 -0.05514,-0.19461 -0.11028,-0.3049c-0.02919,-0.05514 -0.05514,-0.11028 -0.08433,-0.16543c-0.02919,-0.05514 -0.05514,-0.08109 -0.08433,-0.16543v0.3049c-0.02595,0.08109 -0.02595,0.13623 -0.05514,0.22056c0,0 -0.02919,0.02595 -0.02919,0.05514c-0.08433,0.13947 -0.19461,0.27895 -0.3049,0.38923c-0.13947,0.13947 -0.30814,0.24976 -0.47356,0.33408c-0.11028,0.05514 -0.2238,0.08433 -0.33408,0.11028h-0.16543c-0.19461,0 -0.36328,0 -0.5287,-0.05514c-0.02595,0 -0.08109,-0.02919 -0.11028,-0.02919c0.02919,0.11028 0.05514,0.19461 0.08433,0.3049l0.05514,0.05514c0.05514,0.11028 0.16543,0.22056 0.27571,0.3049c0.11028,0.08109 0.24976,0.13623 0.38923,0.16543c0.13947,0.05514 0.27895,0.05514 0.44437,0.05514h0.11028c0.11352,-0.02919 0.19461,-0.05514 0.27895,-0.08433c0.13947,-0.05514 0.27895,-0.16867 0.38923,-0.27895c0.08109,-0.08109 0.16543,-0.19461 0.22056,-0.3049l0.02919,-0.02595v-0.02919c0.02595,-0.05514 0.05514,-0.11028 0.05514,-0.16543v-0.24976c0,-0.02919 -0.02919,-0.05514 0,-0.08433z" fill="#ffffff"/></g></g></svg>