<svg version="1.1" xmlns="http://www.w3.org/2000/svg" xmlns:xlink="http://www.w3.org/1999/xlink" width="14.49785" height="12.55614" viewBox="0,0,14.49785,12.55614"><g transform="translate(-172.7511,-353.72193)"><g stroke="none" stroke-miterlimit="10"><g><path d="M176.50449,366.05386l-3.4933,-6.05386l3.4933,-6.05386h6.99108l3.4933,6.05386l-3.4933,6.05386z" fill="#9dcc3a"/><path d="M183.36555,354.17037h-6.73099l-3.36774,5.82964l3.36774,5.82964h6.73099l3.36774,-5.82964l-3.36774,-5.82964M183.62562,353.72193l3.62334,6.27807l-3.62334,6.27807h-7.25117l-3.62334,-6.27807l3.62334,-6.27807z" fill="#000000"/></g><g fill="#ffffff"><path d="M179.93182,364.78161l-4.00793,-4.67803c0,0 1.39973,-1.75982 1.42063,-1.75982l5.17039,-0.04609c-0.03133,0.06265 1.59207,1.64243 1.56075,1.67376c-0.16558,0.26403 -4.14383,4.81017 -4.14383,4.81017z"/><path d="M180.08902,357.81337c0,-0.00448 0,-0.00895 0,-0.00895c0.7205,-0.62204 1.44099,-1.23961 2.16597,-1.86613c0.00448,0.01343 0.01343,0.02238 0.0179,0.0358c0.06265,0.13425 0.1253,0.27298 0.17901,0.41171c0.0358,0.09398 0.06265,0.19243 0.09398,0.28641c0.00895,0.03133 -0.01343,0.0358 -0.03133,0.04475c-0.17006,0.08055 -0.34011,0.15663 -0.51017,0.23271c-0.54149,0.25061 -1.08298,0.49674 -1.62448,0.74735c-0.07608,0.0358 -0.15215,0.06713 -0.22823,0.09845c-0.0179,0.00448 -0.04028,0.00895 -0.06265,0.0179z"/><path d="M178.19603,355.92934c-0.00895,-0.01343 -0.01343,-0.02685 -0.02685,-0.04475c0.26403,-0.1253 0.51912,-0.24613 0.78762,-0.37144c0.04028,0.68917 0.06265,1.37387 0.20138,2.04514c-0.04028,0.01343 -0.05818,-0.01343 -0.0716,-0.04028c-0.1074,-0.19691 -0.21033,-0.39829 -0.31773,-0.59519c-0.15663,-0.29088 -0.32221,-0.57729 -0.48331,-0.8637c-0.02685,-0.04475 -0.06265,-0.08503 -0.0895,-0.12978z"/><path d="M177.36366,357.41061c-0.02685,-0.00895 -0.0358,-0.0179 -0.02238,-0.04923c0.0895,-0.18796 0.17453,-0.37591 0.26403,-0.56387c0.02238,-0.04028 0.02685,-0.04475 0.05818,-0.01343c0.23271,0.21033 0.46989,0.42066 0.7026,0.63547c0.09845,0.0895 0.18348,0.18348 0.27746,0.27298c0.0179,0.0179 0.0179,0.1253 0.0179,0.1253c0,0 -0.90398,-0.27746 -1.29779,-0.40724z"/></g><g font-family="Sans Serif" font-weight="normal" font-size="40" text-anchor="start"><text transform="translate(178.21096,363.06399) scale(0.14314,0.14314)" font-size="40" xml:space="preserve" fill-opacity="0.87451" fill="#192401"><tspan x="0" dy="0">1</tspan></text><text transform="translate(178.06223,362.91525) scale(0.14314,0.14314)" font-size="40" xml:space="preserve" fill="#9dcc3a"><tspan x="0" dy="0">1</tspan></text></g></g></g></svg>